<svg width="129" height="27" viewBox="0 0 129 27" fill="none" xmlns="http://www.w3.org/2000/svg">
<path d="M13.9354 13.0645C12.8576 13.0645 11.9349 12.6808 11.1673 11.9132C10.3998 11.1457 10.016 10.223 10.016 9.14518C10.016 8.06736 10.3998 7.14468 11.1673 6.37714C11.9349 5.6096 12.8576 5.22583 13.9354 5.22583C15.0132 5.22583 15.9359 5.6096 16.7034 6.37714C17.471 7.14468 17.8547 8.06736 17.8547 9.14518C17.8547 10.223 17.471 11.1457 16.7034 11.9132C15.9359 12.6808 15.0132 13.0645 13.9354 13.0645ZM6.09668 20.9032V18.1597C6.09668 17.6045 6.23974 17.0943 6.52585 16.6292C6.81196 16.1641 7.19149 15.8087 7.66442 15.5631C8.67692 15.0569 9.70575 14.6774 10.7509 14.4246C11.7961 14.1718 12.8576 14.045 13.9354 14.0444C15.0132 14.0444 16.0747 14.1711 17.1199 14.4246C18.165 14.678 19.1939 15.0575 20.2064 15.5631C20.6799 15.8081 21.0598 16.1634 21.3459 16.6292C21.632 17.0949 21.7748 17.6051 21.7741 18.1597V20.9032H6.09668Z" fill="#7F30FF"/>
<rect x="1" y="1" width="25.871" height="25" rx="1" stroke="#7F30FF" stroke-width="2"/>
<path d="M44.4 9.76V20H39.98V9.76H35.46V6.24H48.9V9.76H44.4ZM63.9736 10.46C63.9736 11.3 63.7469 12.06 63.2936 12.74C62.8403 13.42 62.1803 13.92 61.3136 14.24L64.3736 20H59.4136L56.9736 14.98H55.3336V20H50.9136V6.24H59.3336C60.3203 6.24 61.1603 6.43333 61.8536 6.82C62.5603 7.19333 63.0869 7.70667 63.4336 8.36C63.7936 9 63.9736 9.7 63.9736 10.46ZM59.4736 10.64C59.4736 10.28 59.3536 9.98 59.1136 9.74C58.8736 9.5 58.5803 9.38 58.2336 9.38H55.3336V11.92H58.2336C58.5803 11.92 58.8736 11.8 59.1136 11.56C59.3536 11.3067 59.4736 11 59.4736 10.64ZM72.988 6C75.3613 6 77.1946 6.60667 78.488 7.82C79.7813 9.03333 80.428 10.8 80.428 13.12C80.428 15.44 79.7813 17.2067 78.488 18.42C77.1946 19.6333 75.3613 20.24 72.988 20.24C70.6146 20.24 68.7813 19.64 67.488 18.44C66.208 17.2267 65.568 15.4533 65.568 13.12C65.568 10.7867 66.208 9.02 67.488 7.82C68.7813 6.60667 70.6146 6 72.988 6ZM72.988 9.3C72.0413 9.3 71.3213 9.58667 70.828 10.16C70.3346 10.7333 70.088 11.5067 70.088 12.48V13.76C70.088 14.7333 70.3346 15.5067 70.828 16.08C71.3213 16.6533 72.0413 16.94 72.988 16.94C73.9346 16.94 74.6546 16.6533 75.148 16.08C75.6546 15.5067 75.908 14.7333 75.908 13.76V12.48C75.908 11.5067 75.6546 10.7333 75.148 10.16C74.6546 9.58667 73.9346 9.3 72.988 9.3ZM94.6281 20V15.04C94.6281 14.4267 94.6481 13.8 94.6881 13.16C94.7415 12.5067 94.7948 11.96 94.8481 11.52C94.9015 11.08 94.9348 10.8 94.9481 10.68H94.8681L92.3281 20H88.8681L86.3081 10.7H86.2281C86.2415 10.82 86.2748 11.1 86.3281 11.54C86.3948 11.9667 86.4548 12.5067 86.5081 13.16C86.5615 13.8 86.5881 14.4267 86.5881 15.04V20H82.5281V6.24H88.7681L90.8481 14.18H90.9281L92.9881 6.24H99.0081V20H94.6281ZM110.855 6.24C111.548 6.24 112.182 6.38667 112.755 6.68C113.342 6.96 113.802 7.36 114.135 7.88C114.482 8.4 114.655 8.98 114.655 9.62C114.655 11.3133 113.888 12.38 112.355 12.82V12.9C114.102 13.3 114.975 14.4467 114.975 16.34C114.975 17.06 114.795 17.7 114.435 18.26C114.088 18.8067 113.608 19.2333 112.995 19.54C112.382 19.8467 111.708 20 110.975 20H101.695V6.24H110.855ZM106.115 11.6H109.155C109.448 11.6 109.688 11.5 109.875 11.3C110.075 11.0867 110.175 10.8267 110.175 10.52V10.32C110.175 10.0267 110.075 9.78 109.875 9.58C109.675 9.36667 109.435 9.26 109.155 9.26H106.115V11.6ZM106.115 16.8H109.475C109.768 16.8 110.008 16.7 110.195 16.5C110.395 16.2867 110.495 16.0267 110.495 15.72V15.52C110.495 15.2133 110.395 14.96 110.195 14.76C110.008 14.5467 109.768 14.44 109.475 14.44H106.115V16.8ZM117.461 20V6.24H121.881V20H117.461Z" fill="white"/>
</svg>
