<svg width="20" height="22" viewBox="0 0 20 22" fill="none" xmlns="http://www.w3.org/2000/svg">
<path d="M17.6112 9.33281L18.8132 10.0538C18.8873 10.0982 18.9487 10.1611 18.9913 10.2362C19.0339 10.3114 19.0564 10.3964 19.0564 10.4828C19.0564 10.5692 19.0339 10.6542 18.9913 10.7294C18.9487 10.8046 18.8873 10.8674 18.8132 10.9118L9.52818 16.4818L0.243175 10.9118C0.169021 10.8674 0.107641 10.8046 0.0650215 10.7294C0.0224023 10.6542 0 10.5692 0 10.4828C0 10.3964 0.0224023 10.3114 0.0650215 10.2362C0.107641 10.1611 0.169021 10.0982 0.243175 10.0538L1.44518 9.33281L9.52818 14.1828L17.6112 9.33281ZM17.6112 14.0328L18.8132 14.7538C18.8873 14.7982 18.9487 14.8611 18.9913 14.9362C19.0339 15.0114 19.0564 15.0964 19.0564 15.1828C19.0564 15.2692 19.0339 15.3542 18.9913 15.4294C18.9487 15.5046 18.8873 15.5674 18.8132 15.6118L10.0432 20.8738C9.88764 20.9673 9.70962 21.0166 9.52818 21.0166C9.34673 21.0166 9.16871 20.9673 9.01318 20.8738L0.243175 15.6118C0.169021 15.5674 0.107641 15.5046 0.0650215 15.4294C0.0224023 15.3542 0 15.2692 0 15.1828C0 15.0964 0.0224023 15.0114 0.0650215 14.9362C0.107641 14.8611 0.169021 14.7982 0.243175 14.7538L1.44518 14.0328L9.52818 18.8828L17.6112 14.0328ZM10.0422 0.14181L18.8132 5.40381C18.8873 5.4482 18.9487 5.51106 18.9913 5.58625C19.0339 5.66143 19.0564 5.74638 19.0564 5.83281C19.0564 5.91924 19.0339 6.00419 18.9913 6.07937C18.9487 6.15456 18.8873 6.21742 18.8132 6.26181L9.52818 11.8318L0.243175 6.26281C0.169021 6.21842 0.107641 6.15556 0.0650215 6.08037C0.0224023 6.00519 0 5.92024 0 5.83381C0 5.74738 0.0224023 5.66243 0.0650215 5.58725C0.107641 5.51206 0.169021 5.4492 0.243175 5.40481L9.01318 0.14281C9.16871 0.0493663 9.34673 0 9.52818 0C9.70962 0 9.88764 0.0493663 10.0432 0.14281L10.0422 0.14181Z" fill="#7F30FF"/>
</svg>
